<?xml version="1.0" encoding="UTF-8" standalone="no"?>
<svg
   xmlns:dc="http://purl.org/dc/elements/1.1/"
   xmlns:cc="http://creativecommons.org/ns#"
   xmlns:rdf="http://www.w3.org/1999/02/22-rdf-syntax-ns#"
   xmlns:svg="http://www.w3.org/2000/svg"
   xmlns="http://www.w3.org/2000/svg"
   xmlns:sodipodi="http://sodipodi.sourceforge.net/DTD/sodipodi-0.dtd"
   xmlns:inkscape="http://www.inkscape.org/namespaces/inkscape"
   version="1.1"
   x="0px"
   y="0px"
   viewBox="0 0 80 88.000031"
   id="svg3775"
   sodipodi:docname="library.svg"
   inkscape:version="0.92.4 5da689c313, 2019-01-14"
   width="80"
   height="88.000031">
  <metadata
     id="metadata3781">
    <rdf:RDF>
      <cc:Work
         rdf:about="">
        <dc:format>image/svg+xml</dc:format>
        <dc:type
           rdf:resource="http://purl.org/dc/dcmitype/StillImage" />
      </cc:Work>
    </rdf:RDF>
  </metadata>
  <defs
     id="defs3779" />
  <sodipodi:namedview
     pagecolor="#ffffff"
     bordercolor="#666666"
     borderopacity="1"
     objecttolerance="10"
     gridtolerance="10"
     guidetolerance="10"
     inkscape:pageopacity="0"
     inkscape:pageshadow="2"
     inkscape:window-width="2560"
     inkscape:window-height="1412"
     id="namedview3777"
     showgrid="false"
     inkscape:zoom="4.912"
     inkscape:cx="99.845657"
     inkscape:cy="36.171795"
     inkscape:window-x="0"
     inkscape:window-y="0"
     inkscape:window-maximized="1"
     inkscape:current-layer="g3769" />
  <g
     transform="translate(-10,-958.36217)"
     id="g3769">
    <path
       style="color:#000000;text-indent:0;text-transform:none;direction:ltr;baseline-shift:baseline;display:inline;overflow:visible;visibility:visible;fill:#000000;fill-opacity:1;stroke:none;enable-background:accumulate"
       d="m 85.09375,958.36217 c 2.6973,0 4.90625,2.1532 4.90625,4.8202 v 69.42983 c -0.60442,2.8414 -2.81664,4.7877 -5,4.8511 v 7.9101 c -5e-5,0.5177 -0.47642,0.9887 -1,0.9888 H 16 c -0.52358,-10e-5 -0.99995,-0.4711 -1,-0.9888 v -7.9101 c -2.82945,-0.5176 -4.93447,-2.7393 -5,-4.8511 v -69.42983 c 0,-2.667 2.20895,-4.8202 4.90625,-4.8202 z m 0,1.9775 H 51 v 23.7303 h 37 v -20.8876 c 0,-1.6057 -1.28235,-2.8427 -2.90625,-2.8427 z m -36.09375,0 H 14.90625 c -1.6239,0 -2.90625,1.237 -2.90625,2.8427 v 20.8876 h 37 z m 39,25.7079 H 51 v 23.69943 h 6 v -19.74443 c 5e-5,-0.5177 0.47642,-0.9887 1,-0.9887 7.72374,0 15.47793,0 23.1875,0 0.4584,0.087 0.82072,0.5274 0.8125,0.9887 v 19.74443 h 6 z m -39,0 H 12 v 23.69943 h 37 z m 31,4.9438 h -4 v 18.75563 h 4 z m -6,0 H 70.5 V 1009.747 H 74 Z m -5.5,0 H 65 v 18.75563 h 3.5 z m -5.5,0 h -4 v 18.75563 h 4 z m 25,20.73313 H 51 v 23.7613 h 6 v -19.7753 c 5e-5,-0.5177 0.47642,-0.9887 1,-0.9888 7.72374,0 15.47794,0 23.1875,0 0.4584,0.087 0.82072,0.5274 0.8125,0.9888 v 19.7753 h 3.09375 c 1.6239,0 2.90625,-1.2681 2.90625,-2.8736 z m -39,0 H 12 v 20.8877 c 0,1.6055 1.28235,2.8736 2.90625,2.8736 H 18 v -19.7753 c 5e-5,-0.5177 0.47642,-0.9887 1,-0.9888 7.72374,0 15.47794,0 23.1875,0 0.4584,0.087 0.82072,0.5274 0.8125,0.9888 v 19.7753 h 6 z m 31,4.9748 h -4 v 18.7865 h 4 z m -6,0 h -3.5 v 18.7865 H 74 Z m -5.5,0 H 65 v 18.7865 h 3.5 z m -5.5,0 h -4 v 18.7865 h 4 z m -22,0 h -4 v 18.7865 h 4 z m -6,0 h -3.5 v 18.7865 H 35 Z m -5.5,0 H 26 v 18.7865 h 3.5 z m -5.5,0 h -4 v 18.7865 h 4 z m 59,20.764 H 17 v 6.9214 h 66 z"
       marker="none"
       visibility="visible"
       display="inline"
       overflow="visible"
       id="path3767"
       inkscape:connector-curvature="0" />
  </g>
</svg>
